<svg width="24" height="24" viewBox="0 0 24 24" fill="none" xmlns="http://www.w3.org/2000/svg">
<path d="M10 18.9999C9.76635 19.0004 9.53992 18.919 9.36 18.7699C9.25875 18.686 9.17504 18.5829 9.11369 18.4665C9.05234 18.3502 9.01454 18.2229 9.00247 18.0919C8.99039 17.9609 9.00427 17.8289 9.04332 17.7033C9.08236 17.5777 9.1458 17.461 9.23 17.3599L13.71 11.9999L9.39001 6.62994C9.30694 6.52765 9.24491 6.40996 9.20748 6.28362C9.17004 6.15728 9.15795 6.02479 9.17189 5.89376C9.18583 5.76273 9.22553 5.63575 9.2887 5.52011C9.35187 5.40447 9.43728 5.30246 9.54001 5.21994C9.64347 5.1289 9.76464 5.06024 9.8959 5.01825C10.0272 4.97626 10.1657 4.96185 10.3028 4.97594C10.4399 4.99002 10.5726 5.03229 10.6926 5.1001C10.8125 5.1679 10.9172 5.25977 11 5.36994L15.83 11.3699C15.9771 11.5489 16.0575 11.7733 16.0575 12.0049C16.0575 12.2366 15.9771 12.461 15.83 12.6399L10.83 18.6399C10.7297 18.761 10.6023 18.8566 10.458 18.9192C10.3138 18.9817 10.1569 19.0094 10 18.9999Z" fill="#8B8C8E"/>
</svg>
