<svg width="20" height="20" viewBox="0 0 20 20" fill="none" xmlns="http://www.w3.org/2000/svg">
<g clip-path="url(#clip0_9406_111381)">
<path d="M16.1667 6.11704L13.8833 3.8337C13.5853 3.55378 13.1948 3.39317 12.7861 3.38241C12.3774 3.37166 11.979 3.51151 11.6667 3.77537L4.16667 11.2754C3.89731 11.547 3.72959 11.903 3.69167 12.2837L3.33334 15.7587C3.32211 15.8808 3.33795 16.0038 3.37972 16.119C3.42149 16.2343 3.48817 16.3389 3.575 16.4254C3.65287 16.5026 3.74522 16.5637 3.84675 16.6052C3.94828 16.6466 4.057 16.6677 4.16667 16.667H4.24167L7.71667 16.3504C8.09733 16.3124 8.45337 16.1447 8.725 15.8754L16.225 8.37537C16.5161 8.06784 16.6734 7.65746 16.6625 7.23415C16.6516 6.81084 16.4733 6.40913 16.1667 6.11704ZM13.3333 8.90037L11.1 6.66704L12.725 5.00037L15 7.27537L13.3333 8.90037Z" fill="#26282D"/>
</g>
<defs>
<clipPath id="clip0_9406_111381">
<rect width="20" height="20" fill="white"/>
</clipPath>
</defs>
</svg>
