<svg width="24" height="24" viewBox="0 0 24 24" fill="none" xmlns="http://www.w3.org/2000/svg">
<path d="M19 7H17V6C17 5.20435 16.6839 4.44129 16.1213 3.87868C15.5587 3.31607 14.7956 3 14 3H10C9.20435 3 8.44129 3.31607 7.87868 3.87868C7.31607 4.44129 7 5.20435 7 6V7H5C4.47005 7.00158 3.96227 7.2128 3.58753 7.58753C3.2128 7.96227 3.00158 8.47005 3 9V19C3.00158 19.5299 3.2128 20.0377 3.58753 20.4125C3.96227 20.7872 4.47005 20.9984 5 21H19C19.5299 20.9984 20.0377 20.7872 20.4125 20.4125C20.7872 20.0377 20.9984 19.5299 21 19V9C20.9984 8.47005 20.7872 7.96227 20.4125 7.58753C20.0377 7.2128 19.5299 7.00158 19 7ZM9 6C9 5.73478 9.10536 5.48043 9.29289 5.29289C9.48043 5.10536 9.73478 5 10 5H14C14.2652 5 14.5196 5.10536 14.7071 5.29289C14.8946 5.48043 15 5.73478 15 6V7H9V6ZM15 15H13V17H11V15H9V13H11V11H13V13H15V15Z" fill="#26282D"/>
</svg>
