<svg width="20" height="21" viewBox="0 0 20 21" fill="none" xmlns="http://www.w3.org/2000/svg">
<path d="M5.83335 10.5003C5.83335 9.67624 6.07772 8.87065 6.53556 8.18545C6.9934 7.50025 7.64415 6.96619 8.40551 6.65083C9.16687 6.33546 10.0046 6.25295 10.8129 6.41372C11.6212 6.57449 12.3636 6.97133 12.9463 7.55405C13.529 8.13677 13.9259 8.8792 14.0866 9.68745C14.2474 10.4957 14.1649 11.3335 13.8495 12.0948C13.5342 12.8562 13.0001 13.5069 12.3149 13.9648C11.6297 14.4226 10.8241 14.667 10 14.667C8.89495 14.667 7.83514 14.228 7.05374 13.4466C6.27234 12.6652 5.83335 11.6054 5.83335 10.5003ZM10 4.66699C10.221 4.66699 10.433 4.57919 10.5893 4.42291C10.7456 4.26663 10.8334 4.05467 10.8334 3.83366V3.00033C10.8334 2.77931 10.7456 2.56735 10.5893 2.41107C10.433 2.25479 10.221 2.16699 10 2.16699C9.77901 2.16699 9.56705 2.25479 9.41077 2.41107C9.25449 2.56735 9.16669 2.77931 9.16669 3.00033V3.83366C9.16669 4.05467 9.25449 4.26663 9.41077 4.42291C9.56705 4.57919 9.77901 4.66699 10 4.66699ZM9.16669 17.167V18.0003C9.16669 18.2213 9.25449 18.4333 9.41077 18.5896C9.56705 18.7459 9.77901 18.8337 10 18.8337C10.221 18.8337 10.433 18.7459 10.5893 18.5896C10.7456 18.4333 10.8334 18.2213 10.8334 18.0003V17.167C10.8334 16.946 10.7456 16.734 10.5893 16.5777C10.433 16.4215 10.221 16.3337 10 16.3337C9.77901 16.3337 9.56705 16.4215 9.41077 16.5777C9.25449 16.734 9.16669 16.946 9.16669 17.167ZM17.5 9.66699H16.6667C16.4457 9.66699 16.2337 9.75479 16.0774 9.91107C15.9212 10.0674 15.8334 10.2793 15.8334 10.5003C15.8334 10.7213 15.9212 10.9333 16.0774 11.0896C16.2337 11.2459 16.4457 11.3337 16.6667 11.3337H17.5C17.721 11.3337 17.933 11.2459 18.0893 11.0896C18.2456 10.9333 18.3334 10.7213 18.3334 10.5003C18.3334 10.2793 18.2456 10.0674 18.0893 9.91107C17.933 9.75479 17.721 9.66699 17.5 9.66699ZM2.50002 11.3337H3.33335C3.55437 11.3337 3.76633 11.2459 3.92261 11.0896C4.07889 10.9333 4.16669 10.7213 4.16669 10.5003C4.16669 10.2793 4.07889 10.0674 3.92261 9.91107C3.76633 9.75479 3.55437 9.66699 3.33335 9.66699H2.50002C2.27901 9.66699 2.06704 9.75479 1.91076 9.91107C1.75448 10.0674 1.66669 10.2793 1.66669 10.5003C1.66669 10.7213 1.75448 10.9333 1.91076 11.0896C2.06704 11.2459 2.27901 11.3337 2.50002 11.3337ZM14.7142 6.61949C14.9352 6.61945 15.1471 6.53162 15.3034 6.37533L15.8925 5.78616C15.9721 5.70929 16.0356 5.61733 16.0793 5.51566C16.1229 5.41399 16.1459 5.30464 16.1469 5.19399C16.1479 5.08334 16.1268 4.97361 16.0849 4.8712C16.043 4.76878 15.9811 4.67574 15.9029 4.5975C15.8246 4.51925 15.7316 4.45738 15.6291 4.41547C15.5267 4.37357 15.417 4.35249 15.3064 4.35345C15.1957 4.35441 15.0864 4.3774 14.9847 4.42107C14.883 4.46475 14.7911 4.52823 14.7142 4.60783L14.125 5.19699C14.0085 5.31354 13.9292 5.46201 13.897 5.62363C13.8649 5.78526 13.8814 5.95279 13.9445 6.10504C14.0075 6.25729 14.1143 6.38742 14.2513 6.47899C14.3883 6.57056 14.5494 6.61946 14.7142 6.61949ZM4.69669 14.6253L4.10752 15.2145C4.02793 15.2914 3.96444 15.3833 3.92077 15.485C3.8771 15.5867 3.85411 15.696 3.85315 15.8067C3.85218 15.9173 3.87327 16.027 3.91517 16.1295C3.95707 16.2319 4.01895 16.3249 4.09719 16.4032C4.17544 16.4814 4.26848 16.5433 4.37089 16.5852C4.47331 16.6271 4.58304 16.6482 4.69369 16.6472C4.80434 16.6462 4.91369 16.6233 5.01536 16.5796C5.11703 16.5359 5.20898 16.4724 5.28585 16.3928L5.87502 15.8037C6.02682 15.6465 6.11081 15.436 6.10892 15.2175C6.10702 14.999 6.01938 14.79 5.86487 14.6355C5.71036 14.481 5.50135 14.3933 5.28285 14.3914C5.06436 14.3895 4.85386 14.4735 4.69669 14.6253ZM14.125 14.6253C13.9688 14.7816 13.881 14.9935 13.881 15.2145C13.881 15.4355 13.9688 15.6474 14.125 15.8037L14.7142 16.3928C14.8714 16.5446 15.0819 16.6286 15.3004 16.6267C15.5189 16.6248 15.7279 16.5372 15.8824 16.3827C16.0369 16.2282 16.1245 16.0192 16.1264 15.8007C16.1283 15.5822 16.0443 15.3717 15.8925 15.2145L15.3034 14.6253C15.1471 14.4691 14.9352 14.3813 14.7142 14.3813C14.4932 14.3813 14.2813 14.4691 14.125 14.6253ZM4.69669 6.37533C4.85386 6.52712 5.06436 6.61112 5.28285 6.60922C5.50135 6.60732 5.71036 6.51968 5.86487 6.36517C6.01938 6.21067 6.10702 6.00166 6.10892 5.78316C6.11081 5.56466 6.02682 5.35416 5.87502 5.19699L5.28585 4.60783C5.12869 4.45603 4.91818 4.37203 4.69969 4.37393C4.48119 4.37583 4.27218 4.46347 4.11767 4.61798C3.96317 4.77248 3.87552 4.98149 3.87363 5.19999C3.87173 5.41849 3.95572 5.62899 4.10752 5.78616L4.69669 6.37533Z" fill="#F6C35D"/>
</svg>
