<svg width="21" height="20" viewBox="0 0 21 20" fill="none" xmlns="http://www.w3.org/2000/svg">
<path d="M10.5884 18.2976H10.5051C9.36217 18.2889 8.2325 18.0522 7.1822 17.6015C6.13191 17.1507 5.1821 16.495 4.3884 15.6726C2.9166 14.0987 2.07997 12.0353 2.03996 9.88085C1.99994 7.72636 2.75939 5.63341 4.17173 4.00592C5.08164 2.98621 6.22551 2.20265 7.50507 1.72259C7.65437 1.66513 7.81705 1.65187 7.97369 1.68438C8.13032 1.71689 8.27429 1.7938 8.3884 1.90592C8.49408 2.01369 8.56851 2.14814 8.60373 2.29491C8.63896 2.44168 8.63366 2.59526 8.5884 2.73925C8.1317 3.99003 8.04121 5.34513 8.32757 6.64552C8.61392 7.94592 9.26523 9.13767 10.2051 10.0809C11.1537 11.0179 12.3483 11.667 13.6505 11.9531C14.9528 12.2392 16.3094 12.1506 17.5634 11.6976C17.7127 11.645 17.8738 11.6361 18.0279 11.6718C18.1821 11.7074 18.3229 11.7862 18.4339 11.899C18.5449 12.0118 18.6216 12.1538 18.6548 12.3085C18.6881 12.4632 18.6766 12.6242 18.6217 12.7726C18.196 13.909 17.531 14.9407 16.6717 15.7976C15.8724 16.5945 14.9235 17.2256 13.8795 17.6546C12.8356 18.0837 11.7171 18.3022 10.5884 18.2976Z" fill="#407192"/>
</svg>
