<svg width="25" height="24" viewBox="0 0 25 24" fill="none" xmlns="http://www.w3.org/2000/svg">
<path d="M17.0275 2.00657C16.1384 1.96063 15.2535 2.15627 14.4666 2.57273C13.6797 2.98919 13.0202 3.61093 12.5582 4.37197C12.0962 3.61093 11.4367 2.98919 10.6498 2.57273C9.86296 2.15627 8.97799 1.96063 8.08888 2.00657C4.80839 2.00657 1.63628 5.077 2.7145 10.9732C3.81061 16.9509 12.5582 22.1186 12.5582 22.1186C12.5582 22.1186 21.3058 16.9509 22.3997 10.9732C23.4779 5.077 20.3058 2.00657 17.0275 2.00657ZM19.1058 13.1799H16.508L14.6085 16.0347C14.4924 16.2085 14.3298 16.3462 14.1393 16.4322C13.9488 16.5183 13.738 16.5491 13.5308 16.5213C13.3237 16.4935 13.1285 16.4081 12.9674 16.2749C12.8063 16.1417 12.6858 15.9659 12.6197 15.7676L11.1057 11.2313L10.1381 12.6838C10.0357 12.8369 9.897 12.9623 9.73442 13.0489C9.57185 13.1354 9.39039 13.1804 9.20621 13.1799H6.01064C5.56196 12.4915 5.22273 11.7376 5.00504 10.9452H8.60844L10.5079 8.09045C10.624 7.91666 10.7866 7.77893 10.9771 7.69291C11.1676 7.60689 11.3784 7.57604 11.5856 7.60386C11.7928 7.63167 11.988 7.71704 12.149 7.85027C12.3101 7.98349 12.4306 8.15922 12.4968 8.35749L14.0096 12.8939L14.9772 11.4413C15.0797 11.2881 15.2186 11.1626 15.3814 11.076C15.5442 10.9895 15.7258 10.9445 15.9102 10.9452H20.108C19.8914 11.7374 19.5533 12.4913 19.1058 13.1799Z" fill="#404247"/>
</svg>
