<svg width="24" height="24" viewBox="0 0 24 24" fill="none" xmlns="http://www.w3.org/2000/svg">
<path d="M16.0005 2H8.0005C6.93963 2 5.92222 2.42143 5.17207 3.17157C4.42192 3.92172 4.0005 4.93913 4.0005 6V13.8C3.97673 15.9474 4.80559 18.0167 6.30529 19.5539C7.805 21.0911 9.85312 21.9707 12.0005 22C14.1479 21.9707 16.196 21.0911 17.6957 19.5539C19.1954 18.0167 20.0243 15.9474 20.0005 13.8V6C20.0005 4.93913 19.5791 3.92172 18.8289 3.17157C18.0788 2.42143 17.0614 2 16.0005 2ZM18.0005 13.8C18.0248 15.4172 17.4069 16.978 16.2821 18.1403C15.1574 19.3025 13.6176 19.9713 12.0005 20C10.3834 19.9713 8.84362 19.3025 7.71886 18.1403C6.59411 16.978 5.97615 15.4172 6.0005 13.8V13H18.0005V13.8ZM9.0005 6H11.0005V4H13.0005V6H15.0005V8H13.0005V10H11.0005V8H9.0005V6Z" fill="#407192"/>
</svg>
